<mxfile host="app.diagrams.net" agent="Mozilla/5.0 (Windows NT 10.0; Win64; x64) AppleWebKit/537.36 (KHTML, like Gecko) Chrome/130.0.0.0 Safari/537.36" version="24.8.3">
  <diagram name="Page-1" id="RvI6OC-OHLRhnuMOBlLc">
    <mxGraphModel dx="2762" dy="992" grid="1" gridSize="10" guides="1" tooltips="1" connect="1" arrows="1" fold="1" page="1" pageScale="1" pageWidth="850" pageHeight="1100" math="0" shadow="0">
      <root>
        <mxCell id="0" />
        <mxCell id="1" parent="0" />
        <mxCell id="SmBX6C9AqpKVgvvFYr3I-3" value="" style="group" vertex="1" connectable="0" parent="1">
          <mxGeometry x="-580" y="300" width="140" height="60" as="geometry" />
        </mxCell>
        <mxCell id="SmBX6C9AqpKVgvvFYr3I-4" value="" style="rounded=0;whiteSpace=wrap;html=1;" vertex="1" parent="SmBX6C9AqpKVgvvFYr3I-3">
          <mxGeometry width="140" height="60" as="geometry" />
        </mxCell>
        <mxCell id="SmBX6C9AqpKVgvvFYr3I-5" value="&lt;span style=&quot;font-size: 18px;&quot;&gt;resume.docx&lt;/span&gt;" style="text;html=1;align=center;verticalAlign=middle;whiteSpace=wrap;rounded=0;" vertex="1" parent="SmBX6C9AqpKVgvvFYr3I-3">
          <mxGeometry x="40" y="15" width="60" height="30" as="geometry" />
        </mxCell>
        <mxCell id="SmBX6C9AqpKVgvvFYr3I-6" value="" style="group" vertex="1" connectable="0" parent="1">
          <mxGeometry x="-580" y="479" width="140" height="60" as="geometry" />
        </mxCell>
        <mxCell id="SmBX6C9AqpKVgvvFYr3I-7" value="" style="rounded=0;whiteSpace=wrap;html=1;" vertex="1" parent="SmBX6C9AqpKVgvvFYr3I-6">
          <mxGeometry width="140" height="60" as="geometry" />
        </mxCell>
        <mxCell id="SmBX6C9AqpKVgvvFYr3I-8" value="&lt;span style=&quot;font-size: 18px;&quot;&gt;projects.docx&lt;/span&gt;" style="text;html=1;align=center;verticalAlign=middle;whiteSpace=wrap;rounded=0;" vertex="1" parent="SmBX6C9AqpKVgvvFYr3I-6">
          <mxGeometry x="40" y="15" width="60" height="30" as="geometry" />
        </mxCell>
        <mxCell id="SmBX6C9AqpKVgvvFYr3I-9" value="" style="group" vertex="1" connectable="0" parent="1">
          <mxGeometry x="-580" y="390" width="210" height="60" as="geometry" />
        </mxCell>
        <mxCell id="SmBX6C9AqpKVgvvFYr3I-10" value="" style="rounded=0;whiteSpace=wrap;html=1;" vertex="1" parent="SmBX6C9AqpKVgvvFYr3I-9">
          <mxGeometry width="200" height="60" as="geometry" />
        </mxCell>
        <mxCell id="SmBX6C9AqpKVgvvFYr3I-11" value="&lt;span style=&quot;font-size: 18px;&quot;&gt;job_description.txt&lt;/span&gt;" style="text;html=1;align=center;verticalAlign=middle;whiteSpace=wrap;rounded=0;" vertex="1" parent="SmBX6C9AqpKVgvvFYr3I-9">
          <mxGeometry x="23.57" y="15" width="152.86" height="30" as="geometry" />
        </mxCell>
        <mxCell id="SmBX6C9AqpKVgvvFYr3I-12" value="&lt;font style=&quot;font-size: 18px;&quot;&gt;documents&lt;/font&gt;" style="swimlane;whiteSpace=wrap;html=1;" vertex="1" parent="1">
          <mxGeometry x="-620" y="240" width="270" height="340" as="geometry" />
        </mxCell>
        <mxCell id="SmBX6C9AqpKVgvvFYr3I-13" value="&lt;font style=&quot;font-size: 18px;&quot;&gt;documents.py&lt;/font&gt;" style="swimlane;whiteSpace=wrap;html=1;" vertex="1" parent="1">
          <mxGeometry x="-210" y="350" width="335" height="120" as="geometry" />
        </mxCell>
        <mxCell id="SmBX6C9AqpKVgvvFYr3I-14" value="&lt;font style=&quot;font-size: 16px;&quot;&gt;Contains functions to get the text content from the documents (resume.docx, projects.docx, jobdescription.txt)&amp;nbsp;&lt;/font&gt;" style="text;html=1;align=left;verticalAlign=top;whiteSpace=wrap;rounded=0;" vertex="1" parent="SmBX6C9AqpKVgvvFYr3I-13">
          <mxGeometry x="16.5" y="36" width="293.5" height="70" as="geometry" />
        </mxCell>
        <mxCell id="SmBX6C9AqpKVgvvFYr3I-17" value="&lt;font style=&quot;font-size: 18px;&quot;&gt;generate_response.py&lt;/font&gt;" style="swimlane;whiteSpace=wrap;html=1;" vertex="1" parent="1">
          <mxGeometry x="-210" y="510" width="335" height="160" as="geometry" />
        </mxCell>
        <mxCell id="SmBX6C9AqpKVgvvFYr3I-18" value="&lt;font style=&quot;font-size: 16px;&quot;&gt;Contains function which accepts Prompt Template and input variables for the prompt template, initiates the llm, invoke prompt template and returns the response&lt;/font&gt;" style="text;html=1;align=left;verticalAlign=top;whiteSpace=wrap;rounded=0;" vertex="1" parent="SmBX6C9AqpKVgvvFYr3I-17">
          <mxGeometry x="16.5" y="37" width="293.5" height="104" as="geometry" />
        </mxCell>
        <mxCell id="SmBX6C9AqpKVgvvFYr3I-19" value="&lt;font style=&quot;font-size: 18px;&quot;&gt;get_professional_summary.py&lt;/font&gt;" style="swimlane;whiteSpace=wrap;html=1;" vertex="1" parent="1">
          <mxGeometry x="260" y="350" width="335" height="140" as="geometry" />
        </mxCell>
        <mxCell id="SmBX6C9AqpKVgvvFYr3I-20" value="&lt;font style=&quot;font-size: 16px;&quot;&gt;Generates the professional summary by passing the job description and resume content and calling generate_response.py&#39;s function&lt;/font&gt;" style="text;html=1;align=left;verticalAlign=top;whiteSpace=wrap;rounded=0;" vertex="1" parent="SmBX6C9AqpKVgvvFYr3I-19">
          <mxGeometry x="20.75" y="37" width="293.5" height="84" as="geometry" />
        </mxCell>
        <mxCell id="SmBX6C9AqpKVgvvFYr3I-23" value="&lt;font style=&quot;font-size: 18px;&quot;&gt;get_cover_letter.py&lt;/font&gt;" style="swimlane;whiteSpace=wrap;html=1;" vertex="1" parent="1">
          <mxGeometry x="260" y="710" width="335" height="140" as="geometry" />
        </mxCell>
        <mxCell id="SmBX6C9AqpKVgvvFYr3I-24" value="&lt;font style=&quot;font-size: 16px;&quot;&gt;Generates the cover letter by passing the job description and resume content and calling generate_response.py&#39;s function&lt;/font&gt;" style="text;html=1;align=left;verticalAlign=top;whiteSpace=wrap;rounded=0;" vertex="1" parent="SmBX6C9AqpKVgvvFYr3I-23">
          <mxGeometry x="20.75" y="37" width="293.5" height="84" as="geometry" />
        </mxCell>
        <mxCell id="SmBX6C9AqpKVgvvFYr3I-25" value="&lt;font style=&quot;font-size: 18px;&quot;&gt;get_job_responsibilities.py&lt;/font&gt;" style="swimlane;whiteSpace=wrap;html=1;" vertex="1" parent="1">
          <mxGeometry x="260" y="519" width="335" height="160" as="geometry" />
        </mxCell>
        <mxCell id="SmBX6C9AqpKVgvvFYr3I-26" value="&lt;font style=&quot;font-size: 16px;&quot;&gt;Analyzes the current job responsibilities and generates the updated job responsibilities&amp;nbsp;by passing the job description and resume content and calling generate_response.py&#39;s function&lt;/font&gt;" style="text;html=1;align=left;verticalAlign=top;whiteSpace=wrap;rounded=0;" vertex="1" parent="SmBX6C9AqpKVgvvFYr3I-25">
          <mxGeometry x="20.75" y="37" width="293.5" height="103" as="geometry" />
        </mxCell>
        <mxCell id="SmBX6C9AqpKVgvvFYr3I-27" value="&lt;font style=&quot;font-size: 18px;&quot;&gt;scan_resume_content.py&lt;/font&gt;" style="swimlane;whiteSpace=wrap;html=1;" vertex="1" parent="1">
          <mxGeometry x="630" y="540" width="335" height="160" as="geometry" />
        </mxCell>
        <mxCell id="SmBX6C9AqpKVgvvFYr3I-28" value="&lt;font style=&quot;font-size: 16px;&quot;&gt;Scans the resume content, returns the ATS score and sugesstions to improve it by passing the job description and resume content and calling generate_response.py&#39;s function&lt;/font&gt;" style="text;html=1;align=left;verticalAlign=top;whiteSpace=wrap;rounded=0;" vertex="1" parent="SmBX6C9AqpKVgvvFYr3I-27">
          <mxGeometry x="20.75" y="37" width="293.5" height="103" as="geometry" />
        </mxCell>
        <mxCell id="SmBX6C9AqpKVgvvFYr3I-29" value="&lt;font style=&quot;font-size: 18px;&quot;&gt;get_relevant_projects.py&lt;/font&gt;" style="swimlane;whiteSpace=wrap;html=1;" vertex="1" parent="1">
          <mxGeometry x="630" y="350" width="335" height="160" as="geometry" />
        </mxCell>
        <mxCell id="SmBX6C9AqpKVgvvFYr3I-30" value="&lt;font style=&quot;font-size: 16px;&quot;&gt;Suggests the most relevant projects and generates an updated project description by passing the job description and list of projects and calling generate_response.py&#39;s function&lt;/font&gt;" style="text;html=1;align=left;verticalAlign=top;whiteSpace=wrap;rounded=0;" vertex="1" parent="SmBX6C9AqpKVgvvFYr3I-29">
          <mxGeometry x="20.75" y="37" width="293.5" height="103" as="geometry" />
        </mxCell>
        <mxCell id="SmBX6C9AqpKVgvvFYr3I-32" value="&lt;font style=&quot;font-size: 18px;&quot;&gt;Util Functions&lt;/font&gt;" style="swimlane;whiteSpace=wrap;html=1;dashed=1;" vertex="1" parent="1">
          <mxGeometry x="-250" y="300" width="420" height="410" as="geometry" />
        </mxCell>
        <mxCell id="SmBX6C9AqpKVgvvFYr3I-33" value="&lt;font style=&quot;font-size: 18px;&quot;&gt;Main Scripts&lt;/font&gt;" style="swimlane;whiteSpace=wrap;html=1;dashed=1;" vertex="1" parent="1">
          <mxGeometry x="220" y="300" width="790" height="580" as="geometry" />
        </mxCell>
        <mxCell id="SmBX6C9AqpKVgvvFYr3I-34" value="&lt;font style=&quot;font-size: 18px;&quot;&gt;src&lt;/font&gt;" style="swimlane;whiteSpace=wrap;html=1;" vertex="1" parent="1">
          <mxGeometry x="-300" y="240" width="1360" height="690" as="geometry" />
        </mxCell>
      </root>
    </mxGraphModel>
  </diagram>
</mxfile>
